<mxfile host="drawio-plugin" modified="2025-03-26T07:11:11.062Z" agent="Mozilla/5.0 (Macintosh; Intel Mac OS X 10_15_7) AppleWebKit/537.36 (KHTML, like Gecko) Chrome/122.0.0.0 Safari/537.36" version="22.1.22" etag="QERqH9uhNaHNcRVRs_zh" type="embed">
  <diagram id="0K3cnlsHvp-KO_F_Lzoa" name="Page-1">
    <mxGraphModel dx="1556" dy="510" grid="1" gridSize="10" guides="1" tooltips="1" connect="1" arrows="1" fold="1" page="1" pageScale="1" pageWidth="827" pageHeight="1169" math="0" shadow="0">
      <root>
        <mxCell id="0" />
        <mxCell id="1" parent="0" />
        <mxCell id="226" value="Step1: happy flow to understand the requiremnt" style="rounded=0;whiteSpace=wrap;html=1;fillColor=#1ba1e2;fontColor=#ffffff;strokeColor=#006EAF;align=left;verticalAlign=top;" parent="1" vertex="1">
          <mxGeometry x="-810" y="1080" width="860" height="320" as="geometry" />
        </mxCell>
        <mxCell id="2" value="Expense" style="swimlane;fontStyle=1;align=center;verticalAlign=top;childLayout=stackLayout;horizontal=1;startSize=26;horizontalStack=0;resizeParent=1;resizeParentMax=0;resizeLast=0;collapsible=1;marginBottom=0;" parent="1" vertex="1">
          <mxGeometry x="170" y="585" width="160" height="138" as="geometry" />
        </mxCell>
        <mxCell id="3" value="+ id: int&#xa;+ description: String&#xa;+ amount: double&#xa;+ paidBy: User&#xa;+ st: SplitType&#xa;+ ls: List&lt;Split&gt;" style="text;strokeColor=none;fillColor=none;align=left;verticalAlign=top;spacingLeft=4;spacingRight=4;overflow=hidden;rotatable=0;points=[[0,0.5],[1,0.5]];portConstraint=eastwest;" parent="2" vertex="1">
          <mxGeometry y="26" width="160" height="104" as="geometry" />
        </mxCell>
        <mxCell id="4" value="" style="line;strokeWidth=1;fillColor=none;align=left;verticalAlign=middle;spacingTop=-1;spacingLeft=3;spacingRight=3;rotatable=0;labelPosition=right;points=[];portConstraint=eastwest;strokeColor=inherit;" parent="2" vertex="1">
          <mxGeometry y="130" width="160" height="8" as="geometry" />
        </mxCell>
        <mxCell id="6" value="BalanceSheetController" style="swimlane;fontStyle=1;align=center;verticalAlign=top;childLayout=stackLayout;horizontal=1;startSize=26;horizontalStack=0;resizeParent=1;resizeParentMax=0;resizeLast=0;collapsible=1;marginBottom=0;fillColor=#60a917;fontColor=#ffffff;strokeColor=#2D7600;" parent="1" vertex="1">
          <mxGeometry x="170" y="220" width="160" height="60" as="geometry" />
        </mxCell>
        <mxCell id="8" value="" style="line;strokeWidth=1;fillColor=#60a917;align=left;verticalAlign=middle;spacingTop=-1;spacingLeft=3;spacingRight=3;rotatable=0;labelPosition=right;points=[];portConstraint=eastwest;strokeColor=#2D7600;fontColor=#ffffff;" parent="6" vertex="1">
          <mxGeometry y="26" width="160" height="8" as="geometry" />
        </mxCell>
        <mxCell id="9" value="+ Bussiness Logic: type" style="text;strokeColor=#2D7600;fillColor=#60a917;align=left;verticalAlign=top;spacingLeft=4;spacingRight=4;overflow=hidden;rotatable=0;points=[[0,0.5],[1,0.5]];portConstraint=eastwest;fontColor=#ffffff;" parent="6" vertex="1">
          <mxGeometry y="34" width="160" height="26" as="geometry" />
        </mxCell>
        <mxCell id="10" value="Split" style="swimlane;fontStyle=1;align=center;verticalAlign=top;childLayout=stackLayout;horizontal=1;startSize=26;horizontalStack=0;resizeParent=1;resizeParentMax=0;resizeLast=0;collapsible=1;marginBottom=0;" parent="1" vertex="1">
          <mxGeometry x="170" y="790" width="160" height="78" as="geometry" />
        </mxCell>
        <mxCell id="11" value="+ user: User&#xa;+ amount: double&#xa;+ percentage: int" style="text;strokeColor=none;fillColor=none;align=left;verticalAlign=top;spacingLeft=4;spacingRight=4;overflow=hidden;rotatable=0;points=[[0,0.5],[1,0.5]];portConstraint=eastwest;" parent="10" vertex="1">
          <mxGeometry y="26" width="160" height="44" as="geometry" />
        </mxCell>
        <mxCell id="12" value="" style="line;strokeWidth=1;fillColor=none;align=left;verticalAlign=middle;spacingTop=-1;spacingLeft=3;spacingRight=3;rotatable=0;labelPosition=right;points=[];portConstraint=eastwest;strokeColor=inherit;" parent="10" vertex="1">
          <mxGeometry y="70" width="160" height="8" as="geometry" />
        </mxCell>
        <mxCell id="14" value="Balance" style="swimlane;fontStyle=1;align=center;verticalAlign=top;childLayout=stackLayout;horizontal=1;startSize=26;horizontalStack=0;resizeParent=1;resizeParentMax=0;resizeLast=0;collapsible=1;marginBottom=0;" parent="1" vertex="1">
          <mxGeometry x="510" y="34" width="160" height="68" as="geometry" />
        </mxCell>
        <mxCell id="15" value="+ amountOwe: double&#xa;+ amountGetBack: double" style="text;strokeColor=none;fillColor=none;align=left;verticalAlign=top;spacingLeft=4;spacingRight=4;overflow=hidden;rotatable=0;points=[[0,0.5],[1,0.5]];portConstraint=eastwest;" parent="14" vertex="1">
          <mxGeometry y="26" width="160" height="34" as="geometry" />
        </mxCell>
        <mxCell id="16" value="" style="line;strokeWidth=1;fillColor=none;align=left;verticalAlign=middle;spacingTop=-1;spacingLeft=3;spacingRight=3;rotatable=0;labelPosition=right;points=[];portConstraint=eastwest;strokeColor=inherit;" parent="14" vertex="1">
          <mxGeometry y="60" width="160" height="8" as="geometry" />
        </mxCell>
        <mxCell id="18" value="UserExpenseBalanceSheet" style="swimlane;fontStyle=1;align=center;verticalAlign=top;childLayout=stackLayout;horizontal=1;startSize=26;horizontalStack=0;resizeParent=1;resizeParentMax=0;resizeLast=0;collapsible=1;marginBottom=0;fillColor=#60a917;fontColor=#ffffff;strokeColor=#2D7600;" parent="1" vertex="1">
          <mxGeometry x="160" y="27" width="230" height="118" as="geometry" />
        </mxCell>
        <mxCell id="19" value="+ friendBalance: Map&lt;User, Balance&gt;&#xa;+ totalMyExpense: double&#xa;+ totalPayment: double&#xa;+ totalOwe: double&#xa;+ totalGetBack: double" style="text;strokeColor=#2D7600;fillColor=#60a917;align=left;verticalAlign=top;spacingLeft=4;spacingRight=4;overflow=hidden;rotatable=0;points=[[0,0.5],[1,0.5]];portConstraint=eastwest;fontColor=#ffffff;" parent="18" vertex="1">
          <mxGeometry y="26" width="230" height="84" as="geometry" />
        </mxCell>
        <mxCell id="20" value="" style="line;strokeWidth=1;fillColor=#60a917;align=left;verticalAlign=middle;spacingTop=-1;spacingLeft=3;spacingRight=3;rotatable=0;labelPosition=right;points=[];portConstraint=eastwest;strokeColor=#2D7600;fontColor=#ffffff;" parent="18" vertex="1">
          <mxGeometry y="110" width="230" height="8" as="geometry" />
        </mxCell>
        <mxCell id="26" value="GroupController" style="swimlane;fontStyle=1;align=center;verticalAlign=top;childLayout=stackLayout;horizontal=1;startSize=26;horizontalStack=0;resizeParent=1;resizeParentMax=0;resizeLast=0;collapsible=1;marginBottom=0;" parent="1" vertex="1">
          <mxGeometry x="-480" y="416" width="160" height="86" as="geometry" />
        </mxCell>
        <mxCell id="27" value="+ lg: List&lt;Group&gt;" style="text;strokeColor=none;fillColor=none;align=left;verticalAlign=top;spacingLeft=4;spacingRight=4;overflow=hidden;rotatable=0;points=[[0,0.5],[1,0.5]];portConstraint=eastwest;" parent="26" vertex="1">
          <mxGeometry y="26" width="160" height="26" as="geometry" />
        </mxCell>
        <mxCell id="28" value="" style="line;strokeWidth=1;fillColor=none;align=left;verticalAlign=middle;spacingTop=-1;spacingLeft=3;spacingRight=3;rotatable=0;labelPosition=right;points=[];portConstraint=eastwest;strokeColor=inherit;" parent="26" vertex="1">
          <mxGeometry y="52" width="160" height="8" as="geometry" />
        </mxCell>
        <mxCell id="29" value="+ CRUD on Group: type" style="text;strokeColor=none;fillColor=none;align=left;verticalAlign=top;spacingLeft=4;spacingRight=4;overflow=hidden;rotatable=0;points=[[0,0.5],[1,0.5]];portConstraint=eastwest;" parent="26" vertex="1">
          <mxGeometry y="60" width="160" height="26" as="geometry" />
        </mxCell>
        <mxCell id="30" value="Group" style="swimlane;fontStyle=1;align=center;verticalAlign=top;childLayout=stackLayout;horizontal=1;startSize=26;horizontalStack=0;resizeParent=1;resizeParentMax=0;resizeLast=0;collapsible=1;marginBottom=0;" parent="1" vertex="1">
          <mxGeometry x="-180" y="416" width="150" height="118" as="geometry" />
        </mxCell>
        <mxCell id="31" value="+ id: int&#xa;+ name: String&#xa;+ lu: List&lt;User&gt;&#xa;+ le: List&lt;Expense&gt;&#xa;+ ec: ExpenseController" style="text;strokeColor=none;fillColor=none;align=left;verticalAlign=top;spacingLeft=4;spacingRight=4;overflow=hidden;rotatable=0;points=[[0,0.5],[1,0.5]];portConstraint=eastwest;" parent="30" vertex="1">
          <mxGeometry y="26" width="150" height="84" as="geometry" />
        </mxCell>
        <mxCell id="32" value="" style="line;strokeWidth=1;fillColor=none;align=left;verticalAlign=middle;spacingTop=-1;spacingLeft=3;spacingRight=3;rotatable=0;labelPosition=right;points=[];portConstraint=eastwest;strokeColor=inherit;" parent="30" vertex="1">
          <mxGeometry y="110" width="150" height="8" as="geometry" />
        </mxCell>
        <mxCell id="34" value="SplitFactory" style="swimlane;fontStyle=1;align=center;verticalAlign=top;childLayout=stackLayout;horizontal=1;startSize=26;horizontalStack=0;resizeParent=1;resizeParentMax=0;resizeLast=0;collapsible=1;marginBottom=0;" parent="1" vertex="1">
          <mxGeometry x="460" y="400" width="160" height="34" as="geometry" />
        </mxCell>
        <mxCell id="36" value="" style="line;strokeWidth=1;fillColor=none;align=left;verticalAlign=middle;spacingTop=-1;spacingLeft=3;spacingRight=3;rotatable=0;labelPosition=right;points=[];portConstraint=eastwest;strokeColor=inherit;" parent="34" vertex="1">
          <mxGeometry y="26" width="160" height="8" as="geometry" />
        </mxCell>
        <mxCell id="38" value="ExpenseController" style="swimlane;fontStyle=1;align=center;verticalAlign=top;childLayout=stackLayout;horizontal=1;startSize=26;horizontalStack=0;resizeParent=1;resizeParentMax=0;resizeLast=0;collapsible=1;marginBottom=0;" parent="1" vertex="1">
          <mxGeometry x="180" y="440" width="160" height="60" as="geometry" />
        </mxCell>
        <mxCell id="40" value="" style="line;strokeWidth=1;fillColor=none;align=left;verticalAlign=middle;spacingTop=-1;spacingLeft=3;spacingRight=3;rotatable=0;labelPosition=right;points=[];portConstraint=eastwest;strokeColor=inherit;" parent="38" vertex="1">
          <mxGeometry y="26" width="160" height="8" as="geometry" />
        </mxCell>
        <mxCell id="41" value="+ CRUD on Expense: type" style="text;strokeColor=none;fillColor=none;align=left;verticalAlign=top;spacingLeft=4;spacingRight=4;overflow=hidden;rotatable=0;points=[[0,0.5],[1,0.5]];portConstraint=eastwest;" parent="38" vertex="1">
          <mxGeometry y="34" width="160" height="26" as="geometry" />
        </mxCell>
        <mxCell id="42" value="Splitwise" style="swimlane;fontStyle=1;align=center;verticalAlign=top;childLayout=stackLayout;horizontal=1;startSize=26;horizontalStack=0;resizeParent=1;resizeParentMax=0;resizeLast=0;collapsible=1;marginBottom=0;fillColor=#60a917;fontColor=#ffffff;strokeColor=#2D7600;" parent="1" vertex="1">
          <mxGeometry x="-500" y="212" width="180" height="68" as="geometry" />
        </mxCell>
        <mxCell id="43" value="+ uc: UserController&#xa;+ gc: GroupController" style="text;strokeColor=#2D7600;fillColor=#60a917;align=left;verticalAlign=top;spacingLeft=4;spacingRight=4;overflow=hidden;rotatable=0;points=[[0,0.5],[1,0.5]];portConstraint=eastwest;fontColor=#ffffff;" parent="42" vertex="1">
          <mxGeometry y="26" width="180" height="34" as="geometry" />
        </mxCell>
        <mxCell id="44" value="" style="line;strokeWidth=1;fillColor=#60a917;align=left;verticalAlign=middle;spacingTop=-1;spacingLeft=3;spacingRight=3;rotatable=0;labelPosition=right;points=[];portConstraint=eastwest;strokeColor=#2D7600;fontColor=#ffffff;" parent="42" vertex="1">
          <mxGeometry y="60" width="180" height="8" as="geometry" />
        </mxCell>
        <mxCell id="46" value="UserController" style="swimlane;fontStyle=1;align=center;verticalAlign=top;childLayout=stackLayout;horizontal=1;startSize=26;horizontalStack=0;resizeParent=1;resizeParentMax=0;resizeLast=0;collapsible=1;marginBottom=0;" parent="1" vertex="1">
          <mxGeometry x="-493" y="27" width="160" height="86" as="geometry" />
        </mxCell>
        <mxCell id="47" value="+ lu: List&lt;User&gt;" style="text;strokeColor=none;fillColor=none;align=left;verticalAlign=top;spacingLeft=4;spacingRight=4;overflow=hidden;rotatable=0;points=[[0,0.5],[1,0.5]];portConstraint=eastwest;" parent="46" vertex="1">
          <mxGeometry y="26" width="160" height="26" as="geometry" />
        </mxCell>
        <mxCell id="48" value="" style="line;strokeWidth=1;fillColor=none;align=left;verticalAlign=middle;spacingTop=-1;spacingLeft=3;spacingRight=3;rotatable=0;labelPosition=right;points=[];portConstraint=eastwest;strokeColor=inherit;" parent="46" vertex="1">
          <mxGeometry y="52" width="160" height="8" as="geometry" />
        </mxCell>
        <mxCell id="49" value="+ CRUD on User: type" style="text;strokeColor=none;fillColor=none;align=left;verticalAlign=top;spacingLeft=4;spacingRight=4;overflow=hidden;rotatable=0;points=[[0,0.5],[1,0.5]];portConstraint=eastwest;" parent="46" vertex="1">
          <mxGeometry y="60" width="160" height="26" as="geometry" />
        </mxCell>
        <mxCell id="50" value="User" style="swimlane;fontStyle=1;align=center;verticalAlign=top;childLayout=stackLayout;horizontal=1;startSize=26;horizontalStack=0;resizeParent=1;resizeParentMax=0;resizeLast=0;collapsible=1;marginBottom=0;" parent="1" vertex="1">
          <mxGeometry x="-180" y="34" width="150" height="104" as="geometry" />
        </mxCell>
        <mxCell id="51" value="+ userId: int&#xa;+ name: String&#xa;+ ues: UserExpenseSheet" style="text;strokeColor=none;fillColor=none;align=left;verticalAlign=top;spacingLeft=4;spacingRight=4;overflow=hidden;rotatable=0;points=[[0,0.5],[1,0.5]];portConstraint=eastwest;autosize=0;" parent="50" vertex="1">
          <mxGeometry y="26" width="150" height="44" as="geometry" />
        </mxCell>
        <mxCell id="52" value="" style="line;strokeWidth=1;fillColor=none;align=left;verticalAlign=middle;spacingTop=-1;spacingLeft=3;spacingRight=3;rotatable=0;labelPosition=right;points=[];portConstraint=eastwest;strokeColor=inherit;" parent="50" vertex="1">
          <mxGeometry y="70" width="150" height="8" as="geometry" />
        </mxCell>
        <mxCell id="53" value="+ method(type): type" style="text;strokeColor=none;fillColor=none;align=left;verticalAlign=top;spacingLeft=4;spacingRight=4;overflow=hidden;rotatable=0;points=[[0,0.5],[1,0.5]];portConstraint=eastwest;" parent="50" vertex="1">
          <mxGeometry y="78" width="150" height="26" as="geometry" />
        </mxCell>
        <mxCell id="54" value="ExpenseSplit" style="swimlane;fontStyle=1;align=center;verticalAlign=top;childLayout=stackLayout;horizontal=1;startSize=26;horizontalStack=0;resizeParent=1;resizeParentMax=0;resizeLast=0;collapsible=1;marginBottom=0;" parent="1" vertex="1">
          <mxGeometry x="470" y="490" width="160" height="60" as="geometry" />
        </mxCell>
        <mxCell id="56" value="" style="line;strokeWidth=1;fillColor=none;align=left;verticalAlign=middle;spacingTop=-1;spacingLeft=3;spacingRight=3;rotatable=0;labelPosition=right;points=[];portConstraint=eastwest;strokeColor=inherit;" parent="54" vertex="1">
          <mxGeometry y="26" width="160" height="8" as="geometry" />
        </mxCell>
        <mxCell id="57" value="+ validate Request: type" style="text;strokeColor=none;fillColor=none;align=left;verticalAlign=top;spacingLeft=4;spacingRight=4;overflow=hidden;rotatable=0;points=[[0,0.5],[1,0.5]];portConstraint=eastwest;" parent="54" vertex="1">
          <mxGeometry y="34" width="160" height="26" as="geometry" />
        </mxCell>
        <mxCell id="58" value="SplitType: Enum" style="swimlane;fontStyle=1;align=center;verticalAlign=top;childLayout=stackLayout;horizontal=1;startSize=26;horizontalStack=0;resizeParent=1;resizeParentMax=0;resizeLast=0;collapsible=1;marginBottom=0;" parent="1" vertex="1">
          <mxGeometry x="170" y="950" width="160" height="88" as="geometry" />
        </mxCell>
        <mxCell id="59" value="+ EQUAL&#xa;+ UNEQUAL&#xa;+ PERCENTAGE" style="text;strokeColor=none;fillColor=none;align=left;verticalAlign=top;spacingLeft=4;spacingRight=4;overflow=hidden;rotatable=0;points=[[0,0.5],[1,0.5]];portConstraint=eastwest;" parent="58" vertex="1">
          <mxGeometry y="26" width="160" height="54" as="geometry" />
        </mxCell>
        <mxCell id="60" value="" style="line;strokeWidth=1;fillColor=none;align=left;verticalAlign=middle;spacingTop=-1;spacingLeft=3;spacingRight=3;rotatable=0;labelPosition=right;points=[];portConstraint=eastwest;strokeColor=inherit;" parent="58" vertex="1">
          <mxGeometry y="80" width="160" height="8" as="geometry" />
        </mxCell>
        <mxCell id="62" value="PercentageSplit" style="swimlane;fontStyle=1;align=center;verticalAlign=top;childLayout=stackLayout;horizontal=1;startSize=26;horizontalStack=0;resizeParent=1;resizeParentMax=0;resizeLast=0;collapsible=1;marginBottom=0;" parent="1" vertex="1">
          <mxGeometry x="750" y="416" width="160" height="34" as="geometry" />
        </mxCell>
        <mxCell id="64" value="" style="line;strokeWidth=1;fillColor=none;align=left;verticalAlign=middle;spacingTop=-1;spacingLeft=3;spacingRight=3;rotatable=0;labelPosition=right;points=[];portConstraint=eastwest;strokeColor=inherit;" parent="62" vertex="1">
          <mxGeometry y="26" width="160" height="8" as="geometry" />
        </mxCell>
        <mxCell id="66" value="UnEqualSplit" style="swimlane;fontStyle=1;align=center;verticalAlign=top;childLayout=stackLayout;horizontal=1;startSize=26;horizontalStack=0;resizeParent=1;resizeParentMax=0;resizeLast=0;collapsible=1;marginBottom=0;" parent="1" vertex="1">
          <mxGeometry x="750" y="490" width="160" height="34" as="geometry" />
        </mxCell>
        <mxCell id="68" value="" style="line;strokeWidth=1;fillColor=none;align=left;verticalAlign=middle;spacingTop=-1;spacingLeft=3;spacingRight=3;rotatable=0;labelPosition=right;points=[];portConstraint=eastwest;strokeColor=inherit;" parent="66" vertex="1">
          <mxGeometry y="26" width="160" height="8" as="geometry" />
        </mxCell>
        <mxCell id="70" value="EqualSplit" style="swimlane;fontStyle=1;align=center;verticalAlign=top;childLayout=stackLayout;horizontal=1;startSize=26;horizontalStack=0;resizeParent=1;resizeParentMax=0;resizeLast=0;collapsible=1;marginBottom=0;" parent="1" vertex="1">
          <mxGeometry x="750" y="560" width="160" height="34" as="geometry" />
        </mxCell>
        <mxCell id="72" value="" style="line;strokeWidth=1;fillColor=none;align=left;verticalAlign=middle;spacingTop=-1;spacingLeft=3;spacingRight=3;rotatable=0;labelPosition=right;points=[];portConstraint=eastwest;strokeColor=inherit;" parent="70" vertex="1">
          <mxGeometry y="26" width="160" height="8" as="geometry" />
        </mxCell>
        <mxCell id="82" value="" style="endArrow=open;endFill=1;endSize=12;html=1;exitX=1.006;exitY=0.838;exitDx=0;exitDy=0;entryX=-0.035;entryY=0.168;entryDx=0;entryDy=0;entryPerimeter=0;exitPerimeter=0;" parent="1" source="47" target="51" edge="1">
          <mxGeometry width="160" relative="1" as="geometry">
            <mxPoint x="30" y="190" as="sourcePoint" />
            <mxPoint x="130" y="140" as="targetPoint" />
          </mxGeometry>
        </mxCell>
        <mxCell id="83" value="" style="endArrow=open;endFill=1;endSize=12;html=1;" parent="1" source="42" target="49" edge="1">
          <mxGeometry width="160" relative="1" as="geometry">
            <mxPoint x="141.68" y="341.48" as="sourcePoint" />
            <mxPoint x="138.32999999999998" y="270" as="targetPoint" />
          </mxGeometry>
        </mxCell>
        <mxCell id="84" value="" style="endArrow=open;endFill=1;endSize=12;html=1;exitX=0.5;exitY=1;exitDx=0;exitDy=0;entryX=0.424;entryY=0.007;entryDx=0;entryDy=0;entryPerimeter=0;" parent="1" source="42" target="26" edge="1">
          <mxGeometry width="160" relative="1" as="geometry">
            <mxPoint x="34.833736263736284" y="452" as="sourcePoint" />
            <mxPoint x="29.998571428571324" y="407.9999999999999" as="targetPoint" />
          </mxGeometry>
        </mxCell>
        <mxCell id="85" value="" style="endArrow=open;endFill=1;endSize=12;html=1;exitX=1;exitY=0.5;exitDx=0;exitDy=0;" parent="1" source="27" target="31" edge="1">
          <mxGeometry width="160" relative="1" as="geometry">
            <mxPoint x="-10" y="670" as="sourcePoint" />
            <mxPoint x="-180" y="480" as="targetPoint" />
          </mxGeometry>
        </mxCell>
        <mxCell id="86" value="" style="endArrow=open;endFill=1;endSize=12;html=1;exitX=1;exitY=0.25;exitDx=0;exitDy=0;entryX=0;entryY=0.5;entryDx=0;entryDy=0;" parent="1" source="38" target="34" edge="1">
          <mxGeometry width="160" relative="1" as="geometry">
            <mxPoint x="80" y="490" as="sourcePoint" />
            <mxPoint x="150" y="480" as="targetPoint" />
          </mxGeometry>
        </mxCell>
        <mxCell id="87" value="" style="endArrow=open;endFill=1;endSize=12;html=1;exitX=1;exitY=0.5;exitDx=0;exitDy=0;entryX=-0.008;entryY=0.329;entryDx=0;entryDy=0;entryPerimeter=0;" parent="1" source="38" target="54" edge="1">
          <mxGeometry width="160" relative="1" as="geometry">
            <mxPoint x="160" y="535" as="sourcePoint" />
            <mxPoint x="160" y="490" as="targetPoint" />
          </mxGeometry>
        </mxCell>
        <mxCell id="88" value="" style="endArrow=open;endFill=1;endSize=12;html=1;exitX=1.011;exitY=0.286;exitDx=0;exitDy=0;entryX=-0.002;entryY=-0.077;entryDx=0;entryDy=0;exitPerimeter=0;entryPerimeter=0;" parent="1" source="31" target="41" edge="1">
          <mxGeometry width="160" relative="1" as="geometry">
            <mxPoint x="229.52" y="665" as="sourcePoint" />
            <mxPoint x="229.52" y="620" as="targetPoint" />
          </mxGeometry>
        </mxCell>
        <mxCell id="89" value="" style="endArrow=open;endFill=1;endSize=12;html=1;exitX=1;exitY=0.5;exitDx=0;exitDy=0;entryX=-0.012;entryY=0.539;entryDx=0;entryDy=0;entryPerimeter=0;" parent="1" source="31" target="3" edge="1">
          <mxGeometry width="160" relative="1" as="geometry">
            <mxPoint x="160" y="535" as="sourcePoint" />
            <mxPoint x="160" y="490" as="targetPoint" />
          </mxGeometry>
        </mxCell>
        <mxCell id="90" value="" style="endArrow=open;endFill=1;endSize=12;html=1;entryX=0.484;entryY=1.192;entryDx=0;entryDy=0;entryPerimeter=0;exitX=0.5;exitY=0;exitDx=0;exitDy=0;" parent="1" source="30" target="53" edge="1">
          <mxGeometry width="160" relative="1" as="geometry">
            <mxPoint x="10" y="440" as="sourcePoint" />
            <mxPoint x="30.000000000000085" y="129.99999999999997" as="targetPoint" />
          </mxGeometry>
        </mxCell>
        <mxCell id="91" value="" style="edgeStyle=none;html=1;endSize=12;endArrow=block;endFill=0;entryX=0;entryY=0.5;entryDx=0;entryDy=0;exitX=1;exitY=0.5;exitDx=0;exitDy=0;" parent="1" source="54" target="66" edge="1">
          <mxGeometry width="160" relative="1" as="geometry">
            <mxPoint x="440" y="620" as="sourcePoint" />
            <mxPoint x="600" y="620" as="targetPoint" />
          </mxGeometry>
        </mxCell>
        <mxCell id="92" value="" style="edgeStyle=none;html=1;endSize=12;endArrow=block;endFill=0;entryX=0;entryY=0.5;entryDx=0;entryDy=0;exitX=1.005;exitY=0.992;exitDx=0;exitDy=0;exitPerimeter=0;" parent="1" source="57" target="70" edge="1">
          <mxGeometry width="160" relative="1" as="geometry">
            <mxPoint x="510.0032876712329" y="549.9999999999999" as="sourcePoint" />
            <mxPoint x="542.88" y="610" as="targetPoint" />
          </mxGeometry>
        </mxCell>
        <mxCell id="93" value="" style="edgeStyle=none;html=1;endSize=12;endArrow=block;endFill=0;entryX=0;entryY=0.5;entryDx=0;entryDy=0;exitX=1;exitY=0;exitDx=0;exitDy=0;" parent="1" source="54" target="62" edge="1">
          <mxGeometry width="160" relative="1" as="geometry">
            <mxPoint x="577.1232876712329" y="569.9999999999999" as="sourcePoint" />
            <mxPoint x="610" y="630" as="targetPoint" />
          </mxGeometry>
        </mxCell>
        <mxCell id="94" value="" style="endArrow=open;endFill=1;endSize=12;html=1;exitX=1.006;exitY=0.754;exitDx=0;exitDy=0;entryX=0;entryY=0.08;entryDx=0;entryDy=0;entryPerimeter=0;exitPerimeter=0;" parent="1" source="51" target="19" edge="1">
          <mxGeometry width="160" relative="1" as="geometry">
            <mxPoint x="263.35" y="161.48" as="sourcePoint" />
            <mxPoint x="260.0000000000001" y="89.99999999999997" as="targetPoint" />
          </mxGeometry>
        </mxCell>
        <mxCell id="95" value="" style="endArrow=open;endFill=1;endSize=12;html=1;exitX=1;exitY=0.465;exitDx=0;exitDy=0;entryX=0;entryY=0.31;entryDx=0;entryDy=0;entryPerimeter=0;exitPerimeter=0;" parent="1" source="19" target="15" edge="1">
          <mxGeometry width="160" relative="1" as="geometry">
            <mxPoint x="439.9999999999999" y="33.99600000000004" as="sourcePoint" />
            <mxPoint x="539.1" y="43.54000000000002" as="targetPoint" />
          </mxGeometry>
        </mxCell>
        <mxCell id="97" value="" style="endArrow=open;endFill=1;endSize=12;html=1;entryX=0.48;entryY=1.077;entryDx=0;entryDy=0;entryPerimeter=0;exitX=0.5;exitY=0;exitDx=0;exitDy=0;" parent="1" source="38" target="9" edge="1">
          <mxGeometry width="160" relative="1" as="geometry">
            <mxPoint x="270" y="520" as="sourcePoint" />
            <mxPoint x="480.0000000000001" y="249.99800000000008" as="targetPoint" />
          </mxGeometry>
        </mxCell>
        <mxCell id="99" value="" style="endArrow=open;endFill=1;endSize=12;html=1;exitX=0.5;exitY=1;exitDx=0;exitDy=0;entryX=0.5;entryY=0;entryDx=0;entryDy=0;" parent="1" source="2" target="10" edge="1">
          <mxGeometry width="160" relative="1" as="geometry">
            <mxPoint x="583.62" y="269.15" as="sourcePoint" />
            <mxPoint x="400" y="300" as="targetPoint" />
          </mxGeometry>
        </mxCell>
        <mxCell id="100" value="" style="endArrow=open;endFill=1;endSize=12;html=1;exitX=0.5;exitY=1;exitDx=0;exitDy=0;" parent="1" source="10" target="58" edge="1">
          <mxGeometry width="160" relative="1" as="geometry">
            <mxPoint x="493.9999999999999" y="275.0679999999999" as="sourcePoint" />
            <mxPoint x="502.15999999999997" y="244.93" as="targetPoint" />
          </mxGeometry>
        </mxCell>
        <mxCell id="101" value="" style="endArrow=open;endFill=1;endSize=12;html=1;exitX=0.548;exitY=0.992;exitDx=0;exitDy=0;exitPerimeter=0;entryX=0.5;entryY=0;entryDx=0;entryDy=0;" parent="1" source="41" target="2" edge="1">
          <mxGeometry width="160" relative="1" as="geometry">
            <mxPoint x="350" y="537" as="sourcePoint" />
            <mxPoint x="320" y="470" as="targetPoint" />
          </mxGeometry>
        </mxCell>
        <mxCell id="102" value="" style="endArrow=open;endFill=1;endSize=12;html=1;entryX=0.43;entryY=0.85;entryDx=0;entryDy=0;entryPerimeter=0;" parent="1" source="6" target="20" edge="1">
          <mxGeometry width="160" relative="1" as="geometry">
            <mxPoint x="625" y="230" as="sourcePoint" />
            <mxPoint x="521.3800000000001" y="160.84799999999996" as="targetPoint" />
          </mxGeometry>
        </mxCell>
        <mxCell id="104" value="splitwiseApp" style="rounded=0;whiteSpace=wrap;html=1;" parent="1" vertex="1">
          <mxGeometry x="-780" y="1235" width="80" height="40" as="geometry" />
        </mxCell>
        <mxCell id="105" value="Friend1" style="rounded=0;whiteSpace=wrap;html=1;" parent="1" vertex="1">
          <mxGeometry x="-480" y="1130" width="60" height="20" as="geometry" />
        </mxCell>
        <mxCell id="106" value="Friend2" style="rounded=0;whiteSpace=wrap;html=1;" parent="1" vertex="1">
          <mxGeometry x="-480" y="1159" width="60" height="20" as="geometry" />
        </mxCell>
        <mxCell id="107" value="Friend3" style="rounded=0;whiteSpace=wrap;html=1;" parent="1" vertex="1">
          <mxGeometry x="-480" y="1190" width="60" height="20" as="geometry" />
        </mxCell>
        <mxCell id="108" value="Friend-N" style="rounded=0;whiteSpace=wrap;html=1;" parent="1" vertex="1">
          <mxGeometry x="-480" y="1220" width="60" height="20" as="geometry" />
        </mxCell>
        <mxCell id="120" value="expense1" style="rounded=0;whiteSpace=wrap;html=1;" parent="1" vertex="1">
          <mxGeometry x="-170" y="1258.5" width="60" height="20" as="geometry" />
        </mxCell>
        <mxCell id="121" value="expense2" style="rounded=0;whiteSpace=wrap;html=1;" parent="1" vertex="1">
          <mxGeometry x="-170" y="1289.5" width="60" height="20" as="geometry" />
        </mxCell>
        <mxCell id="124" value="split b/w f1" style="rounded=0;whiteSpace=wrap;html=1;" parent="1" vertex="1">
          <mxGeometry x="-40" y="1258.5" width="60" height="20" as="geometry" />
        </mxCell>
        <mxCell id="125" value="split b/w f2" style="rounded=0;whiteSpace=wrap;html=1;" parent="1" vertex="1">
          <mxGeometry x="-40" y="1285.5" width="60" height="20" as="geometry" />
        </mxCell>
        <mxCell id="128" value="" style="shape=waypoint;sketch=0;fillStyle=solid;size=6;pointerEvents=1;points=[];fillColor=none;resizable=0;rotatable=0;perimeter=centerPerimeter;snapToPoint=1;" parent="1" vertex="1">
          <mxGeometry x="-650" y="1179" width="20" height="20" as="geometry" />
        </mxCell>
        <mxCell id="130" value="" style="endArrow=classic;html=1;exitX=0.5;exitY=1.05;exitDx=0;exitDy=0;exitPerimeter=0;" parent="1" source="128" target="105" edge="1">
          <mxGeometry width="50" height="50" relative="1" as="geometry">
            <mxPoint x="-620" y="1170" as="sourcePoint" />
            <mxPoint x="-570" y="1200" as="targetPoint" />
          </mxGeometry>
        </mxCell>
        <mxCell id="131" value="" style="endArrow=classic;html=1;entryX=0;entryY=0.5;entryDx=0;entryDy=0;" parent="1" target="106" edge="1">
          <mxGeometry width="50" height="50" relative="1" as="geometry">
            <mxPoint x="-640" y="1190" as="sourcePoint" />
            <mxPoint x="-560" y="1210" as="targetPoint" />
          </mxGeometry>
        </mxCell>
        <mxCell id="132" value="" style="endArrow=classic;html=1;" parent="1" target="107" edge="1">
          <mxGeometry width="50" height="50" relative="1" as="geometry">
            <mxPoint x="-640" y="1189" as="sourcePoint" />
            <mxPoint x="-550" y="1220" as="targetPoint" />
          </mxGeometry>
        </mxCell>
        <mxCell id="133" value="" style="endArrow=classic;html=1;" parent="1" source="128" target="108" edge="1">
          <mxGeometry width="50" height="50" relative="1" as="geometry">
            <mxPoint x="-590" y="1200" as="sourcePoint" />
            <mxPoint x="-540" y="1230" as="targetPoint" />
          </mxGeometry>
        </mxCell>
        <mxCell id="134" value="" style="endArrow=classic;html=1;exitX=1;exitY=0.5;exitDx=0;exitDy=0;entryX=0.41;entryY=1.074;entryDx=0;entryDy=0;entryPerimeter=0;" parent="1" source="104" target="128" edge="1">
          <mxGeometry width="50" height="50" relative="1" as="geometry">
            <mxPoint x="-580" y="1210" as="sourcePoint" />
            <mxPoint x="-530" y="1240" as="targetPoint" />
          </mxGeometry>
        </mxCell>
        <mxCell id="135" value="Group1" style="rounded=0;whiteSpace=wrap;html=1;" parent="1" vertex="1">
          <mxGeometry x="-480" y="1275" width="60" height="20" as="geometry" />
        </mxCell>
        <mxCell id="136" value="Group2" style="rounded=0;whiteSpace=wrap;html=1;" parent="1" vertex="1">
          <mxGeometry x="-480" y="1304" width="60" height="20" as="geometry" />
        </mxCell>
        <mxCell id="137" value="Group3" style="rounded=0;whiteSpace=wrap;html=1;" parent="1" vertex="1">
          <mxGeometry x="-480" y="1335" width="60" height="20" as="geometry" />
        </mxCell>
        <mxCell id="138" value="Group-N" style="rounded=0;whiteSpace=wrap;html=1;" parent="1" vertex="1">
          <mxGeometry x="-480" y="1365" width="60" height="20" as="geometry" />
        </mxCell>
        <mxCell id="139" value="" style="shape=waypoint;sketch=0;fillStyle=solid;size=6;pointerEvents=1;points=[];fillColor=none;resizable=0;rotatable=0;perimeter=centerPerimeter;snapToPoint=1;" parent="1" vertex="1">
          <mxGeometry x="-650" y="1324" width="20" height="20" as="geometry" />
        </mxCell>
        <mxCell id="140" value="" style="endArrow=classic;html=1;exitX=0.5;exitY=1.05;exitDx=0;exitDy=0;exitPerimeter=0;" parent="1" source="139" target="135" edge="1">
          <mxGeometry width="50" height="50" relative="1" as="geometry">
            <mxPoint x="-620" y="1315" as="sourcePoint" />
            <mxPoint x="-570" y="1345" as="targetPoint" />
          </mxGeometry>
        </mxCell>
        <mxCell id="141" value="" style="endArrow=classic;html=1;entryX=0;entryY=0.5;entryDx=0;entryDy=0;" parent="1" target="136" edge="1">
          <mxGeometry width="50" height="50" relative="1" as="geometry">
            <mxPoint x="-640" y="1335" as="sourcePoint" />
            <mxPoint x="-560" y="1355" as="targetPoint" />
          </mxGeometry>
        </mxCell>
        <mxCell id="142" value="" style="endArrow=classic;html=1;" parent="1" target="137" edge="1">
          <mxGeometry width="50" height="50" relative="1" as="geometry">
            <mxPoint x="-640" y="1334" as="sourcePoint" />
            <mxPoint x="-550" y="1365" as="targetPoint" />
          </mxGeometry>
        </mxCell>
        <mxCell id="143" value="" style="endArrow=classic;html=1;" parent="1" source="139" target="138" edge="1">
          <mxGeometry width="50" height="50" relative="1" as="geometry">
            <mxPoint x="-590" y="1345" as="sourcePoint" />
            <mxPoint x="-540" y="1375" as="targetPoint" />
          </mxGeometry>
        </mxCell>
        <mxCell id="144" value="Friend1" style="rounded=0;whiteSpace=wrap;html=1;" parent="1" vertex="1">
          <mxGeometry x="-330" y="1274" width="60" height="20" as="geometry" />
        </mxCell>
        <mxCell id="145" value="Friend2" style="rounded=0;whiteSpace=wrap;html=1;" parent="1" vertex="1">
          <mxGeometry x="-330" y="1303" width="60" height="20" as="geometry" />
        </mxCell>
        <mxCell id="146" value="Friend2" style="rounded=0;whiteSpace=wrap;html=1;" parent="1" vertex="1">
          <mxGeometry x="-330" y="1334" width="60" height="20" as="geometry" />
        </mxCell>
        <mxCell id="147" value="Friend4" style="rounded=0;whiteSpace=wrap;html=1;" parent="1" vertex="1">
          <mxGeometry x="-330" y="1364" width="60" height="20" as="geometry" />
        </mxCell>
        <mxCell id="148" value="" style="endArrow=classic;html=1;" parent="1" target="144" edge="1">
          <mxGeometry width="50" height="50" relative="1" as="geometry">
            <mxPoint x="-370" y="1337" as="sourcePoint" />
            <mxPoint x="-300" y="1348" as="targetPoint" />
          </mxGeometry>
        </mxCell>
        <mxCell id="149" value="" style="endArrow=classic;html=1;entryX=0;entryY=0.5;entryDx=0;entryDy=0;startArrow=none;" parent="1" source="157" target="145" edge="1">
          <mxGeometry width="50" height="50" relative="1" as="geometry">
            <mxPoint x="-370" y="1338" as="sourcePoint" />
            <mxPoint x="-290" y="1358" as="targetPoint" />
          </mxGeometry>
        </mxCell>
        <mxCell id="150" value="" style="endArrow=classic;html=1;" parent="1" source="155" target="146" edge="1">
          <mxGeometry width="50" height="50" relative="1" as="geometry">
            <mxPoint x="-370" y="1337" as="sourcePoint" />
            <mxPoint x="-280" y="1368" as="targetPoint" />
          </mxGeometry>
        </mxCell>
        <mxCell id="151" value="" style="endArrow=classic;html=1;exitX=0.53;exitY=0.768;exitDx=0;exitDy=0;exitPerimeter=0;" parent="1" source="155" target="147" edge="1">
          <mxGeometry width="50" height="50" relative="1" as="geometry">
            <mxPoint x="-370" y="1337" as="sourcePoint" />
            <mxPoint x="-270" y="1378" as="targetPoint" />
          </mxGeometry>
        </mxCell>
        <mxCell id="152" value="" style="endArrow=classic;html=1;" parent="1" source="137" edge="1">
          <mxGeometry width="50" height="50" relative="1" as="geometry">
            <mxPoint x="-280" y="1280" as="sourcePoint" />
            <mxPoint x="-370" y="1340" as="targetPoint" />
          </mxGeometry>
        </mxCell>
        <mxCell id="154" value="" style="endArrow=classic;html=1;entryX=0.58;entryY=0.784;entryDx=0;entryDy=0;entryPerimeter=0;exitX=1;exitY=0.5;exitDx=0;exitDy=0;" parent="1" source="104" target="139" edge="1">
          <mxGeometry width="50" height="50" relative="1" as="geometry">
            <mxPoint x="-410" y="1353.125" as="sourcePoint" />
            <mxPoint x="-360" y="1350" as="targetPoint" />
          </mxGeometry>
        </mxCell>
        <mxCell id="155" value="" style="shape=waypoint;sketch=0;fillStyle=solid;size=6;pointerEvents=1;points=[];fillColor=none;resizable=0;rotatable=0;perimeter=centerPerimeter;snapToPoint=1;" parent="1" vertex="1">
          <mxGeometry x="-370" y="1368" width="20" height="20" as="geometry" />
        </mxCell>
        <mxCell id="156" value="" style="endArrow=classic;html=1;exitX=1;exitY=0.25;exitDx=0;exitDy=0;" parent="1" source="138" target="155" edge="1">
          <mxGeometry width="50" height="50" relative="1" as="geometry">
            <mxPoint x="-410" y="1353.125" as="sourcePoint" />
            <mxPoint x="-360" y="1350" as="targetPoint" />
          </mxGeometry>
        </mxCell>
        <mxCell id="158" value="" style="endArrow=none;html=1;entryDx=0;entryDy=0;" parent="1" target="157" edge="1">
          <mxGeometry width="50" height="50" relative="1" as="geometry">
            <mxPoint x="-370" y="1338" as="sourcePoint" />
            <mxPoint x="-210" y="1317" as="targetPoint" />
          </mxGeometry>
        </mxCell>
        <mxCell id="157" value="" style="shape=waypoint;sketch=0;fillStyle=solid;size=6;pointerEvents=1;points=[];fillColor=none;resizable=0;rotatable=0;perimeter=centerPerimeter;snapToPoint=1;" parent="1" vertex="1">
          <mxGeometry x="-380" y="1327" width="20" height="20" as="geometry" />
        </mxCell>
        <mxCell id="174" value="" style="endArrow=classic;html=1;entryX=0;entryY=0.75;entryDx=0;entryDy=0;" parent="1" source="176" target="120" edge="1">
          <mxGeometry width="50" height="50" relative="1" as="geometry">
            <mxPoint x="-460" y="1338.5" as="sourcePoint" />
            <mxPoint x="-300" y="1354.5" as="targetPoint" />
          </mxGeometry>
        </mxCell>
        <mxCell id="175" value="" style="endArrow=classic;html=1;exitX=0.53;exitY=0.768;exitDx=0;exitDy=0;exitPerimeter=0;" parent="1" source="176" target="121" edge="1">
          <mxGeometry width="50" height="50" relative="1" as="geometry">
            <mxPoint x="-460" y="1338.5" as="sourcePoint" />
            <mxPoint x="-300" y="1379.5" as="targetPoint" />
          </mxGeometry>
        </mxCell>
        <mxCell id="176" value="" style="shape=waypoint;sketch=0;fillStyle=solid;size=6;pointerEvents=1;points=[];fillColor=none;resizable=0;rotatable=0;perimeter=centerPerimeter;snapToPoint=1;" parent="1" vertex="1">
          <mxGeometry x="-230" y="1278.5" width="20" height="20" as="geometry" />
        </mxCell>
        <mxCell id="177" value="" style="endArrow=classic;html=1;exitX=1;exitY=0.5;exitDx=0;exitDy=0;" parent="1" source="144" target="176" edge="1">
          <mxGeometry width="50" height="50" relative="1" as="geometry">
            <mxPoint x="-410" y="1380" as="sourcePoint" />
            <mxPoint x="-350" y="1360" as="targetPoint" />
          </mxGeometry>
        </mxCell>
        <mxCell id="178" value="" style="endArrow=classic;html=1;" parent="1" source="180" target="124" edge="1">
          <mxGeometry width="50" height="50" relative="1" as="geometry">
            <mxPoint x="-450" y="1348.5" as="sourcePoint" />
            <mxPoint x="-160" y="1283.5" as="targetPoint" />
          </mxGeometry>
        </mxCell>
        <mxCell id="179" value="" style="endArrow=classic;html=1;exitX=0.53;exitY=0.768;exitDx=0;exitDy=0;exitPerimeter=0;" parent="1" source="180" target="125" edge="1">
          <mxGeometry width="50" height="50" relative="1" as="geometry">
            <mxPoint x="-450" y="1348.5" as="sourcePoint" />
            <mxPoint x="-160" y="1305.375" as="targetPoint" />
          </mxGeometry>
        </mxCell>
        <mxCell id="180" value="" style="shape=waypoint;sketch=0;fillStyle=solid;size=6;pointerEvents=1;points=[];fillColor=none;resizable=0;rotatable=0;perimeter=centerPerimeter;snapToPoint=1;" parent="1" vertex="1">
          <mxGeometry x="-90" y="1265.5" width="20" height="20" as="geometry" />
        </mxCell>
        <mxCell id="181" value="" style="endArrow=classic;html=1;exitX=1;exitY=0.5;exitDx=0;exitDy=0;" parent="1" source="120" target="180" edge="1">
          <mxGeometry width="50" height="50" relative="1" as="geometry">
            <mxPoint x="-240" y="1289.5" as="sourcePoint" />
            <mxPoint x="-440" y="1361.5" as="targetPoint" />
          </mxGeometry>
        </mxCell>
        <mxCell id="207" value="split1" style="rounded=0;whiteSpace=wrap;html=1;" parent="1" vertex="1">
          <mxGeometry x="-45" y="1130" width="60" height="20" as="geometry" />
        </mxCell>
        <mxCell id="208" value="split2" style="rounded=0;whiteSpace=wrap;html=1;" parent="1" vertex="1">
          <mxGeometry x="-45" y="1157" width="60" height="20" as="geometry" />
        </mxCell>
        <mxCell id="209" value="" style="endArrow=classic;html=1;" parent="1" source="211" target="207" edge="1">
          <mxGeometry width="50" height="50" relative="1" as="geometry">
            <mxPoint x="-455" y="1220" as="sourcePoint" />
            <mxPoint x="-165" y="1155" as="targetPoint" />
          </mxGeometry>
        </mxCell>
        <mxCell id="210" value="" style="endArrow=classic;html=1;exitX=0.53;exitY=0.768;exitDx=0;exitDy=0;exitPerimeter=0;" parent="1" source="211" target="208" edge="1">
          <mxGeometry width="50" height="50" relative="1" as="geometry">
            <mxPoint x="-455" y="1220" as="sourcePoint" />
            <mxPoint x="-165" y="1176.875" as="targetPoint" />
          </mxGeometry>
        </mxCell>
        <mxCell id="211" value="" style="shape=waypoint;sketch=0;fillStyle=solid;size=6;pointerEvents=1;points=[];fillColor=none;resizable=0;rotatable=0;perimeter=centerPerimeter;snapToPoint=1;" parent="1" vertex="1">
          <mxGeometry x="-95" y="1137" width="20" height="20" as="geometry" />
        </mxCell>
        <mxCell id="212" value="" style="endArrow=classic;html=1;exitX=1;exitY=0.5;exitDx=0;exitDy=0;" parent="1" source="220" target="211" edge="1">
          <mxGeometry width="50" height="50" relative="1" as="geometry">
            <mxPoint x="-115" y="1140" as="sourcePoint" />
            <mxPoint x="-445" y="1233" as="targetPoint" />
          </mxGeometry>
        </mxCell>
        <mxCell id="220" value="expense1" style="rounded=0;whiteSpace=wrap;html=1;" parent="1" vertex="1">
          <mxGeometry x="-175" y="1159" width="60" height="20" as="geometry" />
        </mxCell>
        <mxCell id="221" value="expense2" style="rounded=0;whiteSpace=wrap;html=1;" parent="1" vertex="1">
          <mxGeometry x="-175" y="1190" width="60" height="20" as="geometry" />
        </mxCell>
        <mxCell id="222" value="" style="endArrow=classic;html=1;entryX=0;entryY=0.75;entryDx=0;entryDy=0;" parent="1" source="224" target="220" edge="1">
          <mxGeometry width="50" height="50" relative="1" as="geometry">
            <mxPoint x="-500" y="1254.5" as="sourcePoint" />
            <mxPoint x="-340" y="1270.5" as="targetPoint" />
          </mxGeometry>
        </mxCell>
        <mxCell id="223" value="" style="endArrow=classic;html=1;exitX=0.53;exitY=0.768;exitDx=0;exitDy=0;exitPerimeter=0;" parent="1" source="224" target="221" edge="1">
          <mxGeometry width="50" height="50" relative="1" as="geometry">
            <mxPoint x="-500" y="1254.5" as="sourcePoint" />
            <mxPoint x="-340" y="1295.5" as="targetPoint" />
          </mxGeometry>
        </mxCell>
        <mxCell id="224" value="" style="shape=waypoint;sketch=0;fillStyle=solid;size=6;pointerEvents=1;points=[];fillColor=none;resizable=0;rotatable=0;perimeter=centerPerimeter;snapToPoint=1;" parent="1" vertex="1">
          <mxGeometry x="-270" y="1194.5" width="20" height="20" as="geometry" />
        </mxCell>
        <mxCell id="225" value="" style="endArrow=classic;html=1;exitX=1;exitY=1;exitDx=0;exitDy=0;" parent="1" source="105" target="224" edge="1">
          <mxGeometry width="50" height="50" relative="1" as="geometry">
            <mxPoint x="-290" y="1195.5" as="sourcePoint" />
            <mxPoint x="-490" y="1267.5" as="targetPoint" />
          </mxGeometry>
        </mxCell>
        <mxCell id="227" value="&lt;h3&gt;Step 2: Requirement Gathering based on the Happy flow&lt;/h3&gt;&lt;ol&gt;&lt;li&gt;&lt;p&gt;&lt;strong&gt;Friend Management&lt;/strong&gt;:&lt;/p&gt;&lt;ul&gt;&lt;li&gt;Add or remove friends.&lt;/li&gt;&lt;/ul&gt;&lt;/li&gt;&lt;li&gt;&lt;p&gt;&lt;strong&gt;Group Management&lt;/strong&gt;:&lt;/p&gt;&lt;ul&gt;&lt;li&gt;Add or remove groups.&lt;/li&gt;&lt;/ul&gt;&lt;/li&gt;&lt;li&gt;&lt;p&gt;&lt;strong&gt;Group Member Management&lt;/strong&gt;:&lt;/p&gt;&lt;ul&gt;&lt;li&gt;Add or remove friends within a group.&lt;/li&gt;&lt;/ul&gt;&lt;/li&gt;&lt;li&gt;&lt;p&gt;&lt;strong&gt;Expense Management&lt;/strong&gt;:&lt;/p&gt;&lt;ul&gt;&lt;li&gt;Add or manage expenses both inside and outside a group.&lt;/li&gt;&lt;/ul&gt;&lt;/li&gt;&lt;li&gt;&lt;p&gt;&lt;strong&gt;Expense Splitting Capabilities&lt;/strong&gt;:&lt;/p&gt;&lt;ul&gt;&lt;li&gt;Split expenses using the following methods:&lt;ul&gt;&lt;li&gt;&lt;strong&gt;Equal split&lt;/strong&gt;&lt;/li&gt;&lt;li&gt;&lt;strong&gt;Unequal split&lt;/strong&gt;&lt;/li&gt;&lt;li&gt;&lt;strong&gt;Percentage-based split&lt;/strong&gt;&lt;/li&gt;&lt;/ul&gt;&lt;/li&gt;&lt;/ul&gt;&lt;/li&gt;&lt;li&gt;&lt;p&gt;&lt;strong&gt;User Balance Sheet&lt;/strong&gt;:&lt;/p&gt;&lt;ul&gt;&lt;li&gt;Maintain a balance sheet for each user to track their outstanding balances.&lt;/li&gt;&lt;/ul&gt;&lt;/li&gt;&lt;/ol&gt;" style="rounded=0;whiteSpace=wrap;html=1;align=left;verticalAlign=top;fillColor=#1ba1e2;fontColor=#ffffff;strokeColor=#006EAF;" parent="1" vertex="1">
          <mxGeometry x="150" y="1080" width="470" height="525" as="geometry" />
        </mxCell>
        <mxCell id="228" value="step 3: Identify the entites&lt;br&gt;1. Splitwise&lt;br&gt;2. User&lt;br&gt;3. Group&amp;nbsp;&lt;br&gt;4. Expense&lt;br&gt;5.split ??(donot know till now what it will be)&lt;br&gt;6.Balance sheet ??" style="rounded=0;whiteSpace=wrap;html=1;align=left;horizontal=1;verticalAlign=top;fillColor=#1ba1e2;fontColor=#ffffff;strokeColor=#006EAF;" parent="1" vertex="1">
          <mxGeometry x="700" y="1079.75" width="330" height="120.5" as="geometry" />
        </mxCell>
        <mxCell id="229" value="step 4: Notes&lt;br&gt;1. What happens when expense created?&lt;br&gt;2. User&lt;br&gt;3. Group&amp;nbsp;&lt;br&gt;4. Expense&lt;br&gt;5.split ??(donot know till now what it will be)&lt;br&gt;6.Balance sheet" style="rounded=0;whiteSpace=wrap;html=1;align=left;horizontal=1;verticalAlign=top;fillColor=#1ba1e2;fontColor=#ffffff;strokeColor=#006EAF;" parent="1" vertex="1">
          <mxGeometry x="690" y="1258.5" width="330" height="120.5" as="geometry" />
        </mxCell>
      </root>
    </mxGraphModel>
  </diagram>
</mxfile>
